<svg xmlns="http://www.w3.org/2000/svg" viewBox="0 0 44 44"><title>shopping-cart-up@1x</title><g id="Layer_2" data-name="Layer 2"><g id="E-Commerce"><g id="Shopping_Cart_Out_2x.png" data-name="Shopping Cart Out@2x.png"><path d="M23,6a1,1,0,0,0,.71-.29L26,3.41V15a1,1,0,0,0,2,0V3.41l2.29,2.29a1,1,0,1,0,1.41-1.41l-4-4a1,1,0,0,0-1.41,0l-4,4A1,1,0,0,0,23,6ZM40,37.24h0l4-18h0A1,1,0,0,0,44,19a1,1,0,0,0-1-1H10.94L9.52,12.71h0A1,1,0,0,0,8.56,12H1a1,1,0,0,0,0,2H7.8L14,37.29h0a1,1,0,0,0,.56.63A4,4,0,0,0,14,40a4,4,0,0,0,8,0,4,4,0,0,0-.55-2H32.55A4,4,0,0,0,32,40a4,4,0,1,0,7.4-2.09A1,1,0,0,0,40,37.24ZM35.89,20h5.86l-.89,4H35.45ZM11.47,20h6.63l.44,4h-6Zm2.68,10-1.07-4h5.69l.45,4Zm.54,2h4.75l.44,4H15.77ZM18,42a2,2,0,1,1,2-2A2,2,0,0,1,18,42Zm8-6H21.89l-.44-4H26Zm0-6H21.23l-.45-4H26Zm0-6H20.56l-.44-4H26Zm6.11,12H28V32h4.55Zm.67-6H28V26h5.22Zm.67-6H28V20h5.88ZM36,42a2,2,0,1,1,2-2A2,2,0,0,1,36,42Zm2.2-6H34.12l.44-4h4.53Zm-3.41-6,.44-4h5.19l-.89,4Z"/></g></g></g></svg>